<?xml version="1.0" encoding="UTF-8"?><svg xmlns="http://www.w3.org/2000/svg" width="2600" height="1700" viewBox="0 0 2600 1700"><defs><filter id="paper"><feTurbulence type="fractalNoise" baseFrequency="0.018" numOctaves="5" seed="31"/><feColorMatrix type="saturate" values="0"/><feComponentTransfer><feFuncA type="table" tableValues="0 0.08"/></feComponentTransfer></filter><filter id="rough"><feTurbulence type="fractalNoise" baseFrequency="0.033" numOctaves="2" seed="9" result="n"/><feDisplacementMap in="SourceGraphic" in2="n" scale="2.1"/></filter><marker id="a36585e" markerWidth="16" markerHeight="16" refX="12" refY="8" orient="auto" markerUnits="strokeWidth"><path d="M0 0L14 8L0 16Z" fill="#36585e"/></marker><marker id="a3f7b55" markerWidth="16" markerHeight="16" refX="12" refY="8" orient="auto" markerUnits="strokeWidth"><path d="M0 0L14 8L0 16Z" fill="#3f7b55"/></marker><marker id="a8a6b18" markerWidth="16" markerHeight="16" refX="12" refY="8" orient="auto" markerUnits="strokeWidth"><path d="M0 0L14 8L0 16Z" fill="#8a6b18"/></marker><marker id="aa54139" markerWidth="16" markerHeight="16" refX="12" refY="8" orient="auto" markerUnits="strokeWidth"><path d="M0 0L14 8L0 16Z" fill="#a54139"/></marker><marker id="a7b4ca0" markerWidth="16" markerHeight="16" refX="12" refY="8" orient="auto" markerUnits="strokeWidth"><path d="M0 0L14 8L0 16Z" fill="#7b4ca0"/></marker><style>.title{font-family:'Hiragino Sans GB','PingFang SC','STHeiti','Arial',sans-serif;font-weight:700;fill:#27231f;letter-spacing:0}.sub,.body,.note,.arrow{font-family:'Hiragino Sans GB','PingFang SC','STHeiti','Arial',sans-serif;fill:#312d29;letter-spacing:0}.noteTitle{font-family:'Hiragino Sans GB','PingFang SC','STHeiti','Arial',sans-serif;font-weight:700;fill:#7e2c28;letter-spacing:0}.labelRed,.badge{font-family:'Hiragino Sans GB','PingFang SC','STHeiti','Arial',sans-serif;font-weight:700;fill:#2a2520;letter-spacing:0}.tiny{font-family:'Hiragino Sans GB','PingFang SC','STHeiti','Arial',sans-serif;fill:#675d51;letter-spacing:0}</style></defs><rect width="2600" height="1700" fill="#f7f0df"/><rect width="2600" height="1700" filter="url(#paper)"/><path d="M80 118C470 86 840 132 1240 92S1830 132 2520 90" fill="none" stroke="#d5c6a2" stroke-width="8" opacity=".6"/><text x="92" y="92" class="title" font-size="60">F183 消息气泡管线架构图</text><text x="96" y="138" class="sub" font-size="29">手绘版主图：四个真相源、身份分裂点、断流补偿、F183 护栏</text><text x="2300" y="95" class="tiny" font-size="22" text-anchor="end">F183 · Phase A</text>
<g><path d="M91 248L452.5 245.5L455.5 428.5L91.5 431Z" fill="#e5efff" stroke="#2d2926" stroke-width="4" filter="url(#rough)"/><path d="M112 300 C217.75 286,319.95 315,433 297" fill="none" stroke="#5b78a5" stroke-width="3" opacity=".65"/><text x="118" y="287" class="title" font-size="34">1. Provider</text><text x="120" y="335" class="body" font-size="25">CLI / Agent 输出</text><text x="120" y="372" class="body" font-size="25">chunks · tools · thinking</text></g>
<g><path d="M586 228L1002.5 225.5L1005.5 448.5L586.5 451Z" fill="#fff2c7" stroke="#2d2926" stroke-width="4" filter="url(#rough)"/><path d="M607 280 C732 266,849.6 295,983 277" fill="none" stroke="#9f7d25" stroke-width="3" opacity=".65"/><text x="613" y="267" class="title" font-size="34">2. Routing</text><text x="615" y="315" class="body" font-size="25">routing 层统一 canonical id</text><text x="615" y="352" class="body" font-size="25">OUTER parentInvocationId 优先</text></g>
<g><path d="M1161 208L1587.5 205.5L1590.5 393.5L1161.5 396Z" fill="#dff4e7" stroke="#2d2926" stroke-width="4" filter="url(#rough)"/><path d="M1182 260 C1310.5 246,1430.9 275,1568 257" fill="none" stroke="#3f7b55" stroke-width="3" opacity=".65"/><text x="1188" y="247" class="title" font-size="34">3A. MessageStore</text><text x="1190" y="295" class="body" font-size="25">Redis MessageStore</text><text x="1190" y="332" class="body" font-size="25">TTL 永久 · 优先级 1</text><path d="M1448.6 224.8L1566.5 223.3L1568.3 256.1L1448.9 257.6Z" fill="#ffd7d1" stroke="#a63a32" stroke-width="2"/><text x="1508" y="248" class="labelRed" font-size="18" text-anchor="middle">TRUTH</text><circle cx="1562" cy="367" r="27" fill="#ffe08a" stroke="#2d2926" stroke-width="3"/><text x="1562" y="375" class="badge" text-anchor="middle" font-size="24">1</text></g>
<g><path d="M1161 483L1587.5 480.5L1590.5 658.5L1161.5 661Z" fill="#fff1c9" stroke="#2d2926" stroke-width="4" filter="url(#rough)"/><path d="M1182 535 C1310.5 521,1430.9 550,1568 532" fill="none" stroke="#9f7d25" stroke-width="3" opacity=".65"/><text x="1188" y="522" class="title" font-size="34">3B. DraftStore</text><text x="1190" y="570" class="body" font-size="25">Redis DraftStore</text><text x="1190" y="607" class="body" font-size="25">TTL 5min · 优先级 2</text><path d="M1448.6 499.8L1566.5 498.3L1568.3 531.1L1448.9 532.6Z" fill="#ffd7d1" stroke="#a63a32" stroke-width="2"/><text x="1508" y="523" class="labelRed" font-size="18" text-anchor="middle">TRUTH</text><circle cx="1562" cy="632" r="27" fill="#ffe08a" stroke="#2d2926" stroke-width="3"/><text x="1562" y="640" class="badge" text-anchor="middle" font-size="24">2</text></g>
<g><path d="M1161 773L1587.5 770.5L1590.5 958.5L1161.5 961Z" fill="#ffe0dc" stroke="#913731" stroke-width="4" filter="url(#rough)"/><path d="M1182 825 C1310.5 811,1430.9 840,1568 822" fill="none" stroke="#a54139" stroke-width="3" opacity=".65"/><text x="1188" y="812" class="title" font-size="34">3C. EventBus</text><text x="1190" y="860" class="body" font-size="25">EventBus + socket.io</text><text x="1190" y="897" class="body" font-size="25">实时但 fire-and-forget</text></g>
<g><path d="M1766 263L2202.5 260.5L2205.5 443.5L1766.5 446Z" fill="#e4f5ec" stroke="#2d2926" stroke-width="4" filter="url(#rough)"/><path d="M1787 315 C1919 301,2042.2 330,2183 312" fill="none" stroke="#3f7b55" stroke-width="3" opacity=".65"/><text x="1793" y="302" class="title" font-size="34">4H. History</text><text x="1795" y="350" class="body" font-size="25">useChatHistory</text><text x="1795" y="387" class="body" font-size="25">F5 / catch-up 从 SoT 补拉</text></g>
<g><path d="M1791 763L2207.5 760.5L2210.5 953.5L1791.5 956Z" fill="#e5efff" stroke="#2d2926" stroke-width="4" filter="url(#rough)"/><path d="M1812 815 C1937 801,2054.6 830,2188 812" fill="none" stroke="#5b78a5" stroke-width="3" opacity=".65"/><text x="1818" y="802" class="title" font-size="34">4. Agent Hook</text><text x="1820" y="850" class="body" font-size="25">useAgentMessages</text><text x="1820" y="887" class="body" font-size="25">未来只提交 BubbleEvent</text></g>
<g><path d="M1771 1083L2177.5 1080.5L2180.5 1263.5L1771.5 1266Z" fill="#ebe4ff" stroke="#2d2926" stroke-width="4" filter="url(#rough)"/><path d="M1792 1135 C1913.5 1121,2028.3 1150,2158 1132" fill="none" stroke="#7b4ca0" stroke-width="3" opacity=".65"/><text x="1798" y="1122" class="title" font-size="34">5A. Zustand</text><text x="1800" y="1170" class="body" font-size="25">Zustand + Ledger</text><text x="1800" y="1207" class="body" font-size="25">页面内存态 · 优先级 3</text><path d="M2038.6 1099.8L2156.5 1098.3L2158.3 1131.1L2038.9 1132.6Z" fill="#ffd7d1" stroke="#a63a32" stroke-width="2"/><text x="2098" y="1123" class="labelRed" font-size="18" text-anchor="middle">TRUTH</text><circle cx="2152" cy="1237" r="27" fill="#ffe08a" stroke="#2d2926" stroke-width="3"/><text x="2152" y="1245" class="badge" text-anchor="middle" font-size="24">3</text></g>
<g><path d="M1081 1118L1487.5 1115.5L1490.5 1298.5L1081.5 1301Z" fill="#eee5d6" stroke="#2d2926" stroke-width="4" filter="url(#rough)"/><path d="M1102 1170 C1223.5 1156,1338.3 1185,1468 1167" fill="none" stroke="#80684a" stroke-width="3" opacity=".65"/><text x="1108" y="1157" class="title" font-size="34">5B. IndexedDB</text><text x="1110" y="1205" class="body" font-size="25">IndexedDB</text><text x="1110" y="1242" class="body" font-size="25">provisional cache · 优先级 4</text><path d="M1348.6 1134.8L1466.5 1133.3L1468.3 1166.1L1348.9 1167.6Z" fill="#ffd7d1" stroke="#a63a32" stroke-width="2"/><text x="1408" y="1158" class="labelRed" font-size="18" text-anchor="middle">TRUTH</text><circle cx="1462" cy="1272" r="27" fill="#ffe08a" stroke="#2d2926" stroke-width="3"/><text x="1462" y="1280" class="badge" text-anchor="middle" font-size="24">4</text></g>
<g><path d="M2041 1363L2442.5 1360.5L2445.5 1538.5L2041.5 1541Z" fill="#fff6d4" stroke="#2d2926" stroke-width="4" filter="url(#rough)"/><path d="M2062 1415 C2181.75 1401,2295.15 1430,2423 1412" fill="none" stroke="#9f7d25" stroke-width="3" opacity=".65"/><text x="2068" y="1402" class="title" font-size="34">6. UI</text><text x="2070" y="1450" class="body" font-size="25">ChatMessage</text><text x="2070" y="1487" class="body" font-size="25">CLI / thinking / rich blocks</text></g>
<path d="M455 338 C520 338,520 335,585 335" fill="none" stroke="#36585e" stroke-width="5" stroke-linecap="round" marker-end="url(#a36585e)" /><path d="M1005 300 C1082.5 300,1082.5 295,1160 295" fill="none" stroke="#3f7b55" stroke-width="5" stroke-linecap="round" marker-end="url(#a3f7b55)" /><text x="1027.5" y="285.5" class="arrow" font-size="22" fill="#3f7b55">持久化</text><path d="M1000 380 C1080 380,1080 570,1160 570" fill="none" stroke="#8a6b18" stroke-width="5" stroke-linecap="round" marker-end="url(#a8a6b18)" /><text x="1025" y="463" class="arrow" font-size="22" fill="#8a6b18">草稿</text><path d="M990 430 C1075 430,1075 865,1160 865" fill="none" stroke="#a54139" stroke-width="5" stroke-linecap="round" marker-end="url(#aa54139)" /><text x="1020" y="635.5" class="arrow" font-size="22" fill="#a54139">实时</text><path d="M1590 295 C1677.5 295,1677.5 332,1765 332" fill="none" stroke="#3f7b55" stroke-width="5" stroke-linecap="round" marker-end="url(#a3f7b55)" /><text x="1622.5" y="301.5" class="arrow" font-size="22" fill="#3f7b55">F5 / catch-up</text><path d="M1590 860 C1690 860,1690 860,1790 860" fill="none" stroke="#a54139" stroke-width="5" stroke-linecap="round" marker-end="url(#aa54139)" /><path d="M1990 445 C1987.5 445,1987.5 760,1985 760" fill="none" stroke="#3f7b55" stroke-width="5" stroke-linecap="round" marker-end="url(#a3f7b55)" /><path d="M1995 955 C1985 955,1985 1080,1975 1080" fill="none" stroke="#36585e" stroke-width="5" stroke-linecap="round" marker-end="url(#a36585e)" /><path d="M1490 1210 Q1630 1130 1770 1160" fill="none" stroke="#7b4ca0" stroke-width="5" stroke-linecap="round" marker-end="url(#a7b4ca0)" stroke-dasharray="14 12"/><text x="1575" y="1118" class="arrow" font-size="22" fill="#7b4ca0">缓存</text><path d="M2055 1265 C2132.5 1265,2132.5 1360,2210 1360" fill="none" stroke="#36585e" stroke-width="5" stroke-linecap="round" marker-end="url(#a36585e)" /><text x="2077.5" y="1300.5" class="arrow" font-size="22" fill="#36585e">渲染</text>
<text x="1170" y="705" class="tiny" font-size="24">四个真相源竞争区</text><path d="M1138 178L1615 178L1615 1005L1138 1005Z" fill="none" stroke="#d7a7a0" stroke-width="3" stroke-dasharray="10 12" opacity=".55"/>
<g transform="rotate(-3 930 637.5)"><path d="M766 538L1092.5 535.5L1095.5 738.5L766.5 741Z" fill="#ffdcd6" stroke="#a54139" stroke-width="3" filter="url(#rough)"/><text x="785" y="573" class="noteTitle" font-size="27">WARN · 身份分裂点</text><text x="787" y="610" class="note" font-size="22">live = OUTER parentInvocationId</text><text x="787" y="642" class="note" font-size="22">persist = INNER ownInvocationId</text><text x="787" y="674" class="note" font-size="22">结果：同一回复裂成两个气泡</text></g>
<g transform="rotate(2 1645 807.5)"><path d="M1471 708L1817.5 705.5L1820.5 908.5L1471.5 911Z" fill="#ffe0dc" stroke="#a54139" stroke-width="3" filter="url(#rough)"/><text x="1490" y="743" class="noteTitle" font-size="27">DROP · 断流点</text><text x="1492" y="780" class="note" font-size="22">dropped 32 events</text><text x="1492" y="812" class="note" font-size="22">5min timeout 后才 catch-up</text><text x="1492" y="844" class="note" font-size="22">结果：不见 / 发完才出来</text></g>
<g transform="rotate(-2 740 1235)"><path d="M561 1133L917.5 1130.5L920.5 1338.5L561.5 1341Z" fill="#e5f4ea" stroke="#3f7b55" stroke-width="3" filter="url(#rough)"/><text x="580" y="1168" class="noteTitle" font-size="27">F5</text><text x="582" y="1205" class="note" font-size="22">绕过坏掉的 transient state</text><text x="582" y="1237" class="note" font-size="22">从 Redis SoT 重建画面</text><text x="582" y="1269" class="note" font-size="22">清 IDB = 去掉放大器</text></g>
<g transform="rotate(2 2395 710)"><path d="M2246 563L2542.5 560.5L2545.5 858.5L2246.5 861Z" fill="#fff0b8" stroke="#b3831d" stroke-width="3" filter="url(#rough)"/><text x="2265" y="598" class="noteTitle" font-size="27">5 类症状</text><text x="2267" y="635" class="note" font-size="22">裂了：identity split</text><text x="2267" y="667" class="note" font-size="22">不见：live event 丢/迟到</text><text x="2267" y="699" class="note" font-size="22">F5 才正常/出来：history 补拉</text><text x="2267" y="731" class="note" font-size="22">发完才出来：done/catch-up</text></g>
<path d="M85 1600C470 1565 930 1620 1320 1587S1880 1562 2510 1592" fill="none" stroke="#c9b890" stroke-width="6" opacity=".65"/><text x="95" y="1628" class="title" font-size="31">F183 护栏</text><text x="390" y="1628" class="body" font-size="28">canonical identity -&gt; Single Writer / reducer -&gt; thread seq + gap -&gt; provisional IDB -&gt; invariant + replay</text><text x="95" y="1665" class="tiny" font-size="20">未来收敛方向</text></svg>